<svg width="20" height="30" viewBox="0 0 15 30" fill="none" xmlns="http://www.w3.org/2000/svg">
<rect y="0.600098" width="3.6" height="28.8" rx="1.8" fill="url(#paint0_linear_284_116)"/>
<rect x="7.19995" y="4.19995" width="3.6" height="21.6" rx="1.8" fill="url(#paint1_linear_284_116)"/>
<rect x="14.4" y="7.80005" width="3.6" height="14.4" rx="1.8" fill="url(#paint2_linear_284_116)"/>
<path d="M27.68 6.2H30.224V23H27.68V6.2ZM39.3703 11.552C41.7463 11.552 43.5463 12.824 43.5463 16.184V23H41.1943V16.592C41.1943 14.696 40.2343 13.904 38.6503 13.904C36.9223 13.904 35.6983 14.936 35.6983 17.696V23H33.3463V11.912H35.6983V13.592H35.7463C36.4663 12.32 37.6663 11.552 39.3703 11.552ZM51.1938 11.912V13.904H48.9378V19.712C48.9378 20.504 49.2738 20.864 50.0898 20.864H50.6658V23.024H49.5858C47.6418 23.024 46.5858 21.992 46.5858 20.168V13.904H44.6178V11.912H46.5858V7.472H48.9378V11.912H51.1938ZM57.5793 11.552C60.9633 11.552 62.8833 13.88 62.8833 17.456V17.84H54.2913C54.3873 19.808 55.7553 21.104 57.6513 21.104C59.4753 21.104 60.5073 19.904 61.0593 19.16L62.7153 20.72C61.8993 21.848 60.4353 23.36 57.6993 23.36C54.1713 23.36 51.9153 20.984 51.9153 17.48C51.9153 14.12 54.0273 11.552 57.5793 11.552ZM57.4353 13.712C55.8513 13.712 54.6993 14.528 54.4113 16.136H60.3393C60.2433 14.6 59.1153 13.712 57.4353 13.712ZM65.1538 6.2H67.5058V23H65.1538V6.2ZM70.6147 6.2H72.9667V23H70.6147V6.2ZM75.8116 6.44H78.6916V9.32H75.8116V6.44ZM78.4276 23H76.0756V11.912H78.4276V23ZM85.6406 20.192L88.4486 11.912H91.2086L86.7446 23H84.5366L80.0966 11.912H82.8566L85.6406 20.192ZM92.6163 6.44H95.4963V9.32H92.6163V6.44ZM95.2323 23H92.8803V11.912H95.2323V23ZM103.165 11.552C106.549 11.552 108.469 13.88 108.469 17.456V17.84H99.8773C99.9733 19.808 101.341 21.104 103.237 21.104C105.061 21.104 106.093 19.904 106.645 19.16L108.301 20.72C107.485 21.848 106.021 23.36 103.285 23.36C99.7573 23.36 97.5013 20.984 97.5013 17.48C97.5013 14.12 99.6133 11.552 103.165 11.552ZM103.021 13.712C101.437 13.712 100.285 14.528 99.9973 16.136H105.925C105.829 14.6 104.701 13.712 103.021 13.712ZM120.93 19.904L123.162 11.912H125.754L122.034 23H119.874L117.234 15.056L114.57 23H112.41L108.69 11.912H111.282L113.514 19.904L116.082 11.912H118.362L120.93 19.904Z" fill="white"/>
<defs>
<linearGradient id="paint0_linear_284_116" x1="0.18" y1="25.8001" x2="11.6107" y2="20.4658" gradientUnits="userSpaceOnUse">
<stop stop-color="#8235FF"/>
<stop offset="1" stop-color="#FF792E"/>
</linearGradient>
<linearGradient id="paint1_linear_284_116" x1="7.37995" y1="23.1" x2="17.4148" y2="16.856" gradientUnits="userSpaceOnUse">
<stop stop-color="#8235FF"/>
<stop offset="1" stop-color="#FF792E"/>
</linearGradient>
<linearGradient id="paint2_linear_284_116" x1="14.58" y1="20.4" x2="22.0195" y2="13.4566" gradientUnits="userSpaceOnUse">
<stop stop-color="#8235FF"/>
<stop offset="1" stop-color="#FF792E"/>
</linearGradient>
</defs>
</svg>
